<svg width="803" height="341" viewBox="0 0 803 341" fill="none" xmlns="http://www.w3.org/2000/svg">
<rect width="802.224" height="341" rx="20" fill="black" fill-opacity="0.2"/>
<rect x="0.5" y="0.5" width="801.224" height="340" rx="19.5" stroke="black" stroke-opacity="0.4"/>
<circle cx="170.5" cy="153.013" r="95.0865" fill="white" fill-opacity="0.95"/>
<ellipse cx="54" cy="51" rx="54" ry="51" transform="matrix(-1 0 0 1 425.224 63)" fill="white" fill-opacity="0.95"/>
<ellipse cx="54.5" cy="56.5" rx="54.5" ry="56.5" transform="matrix(-1 0 0 1 565.224 58)" fill="white" fill-opacity="0.95"/>
<path d="M595.224 114.5C595.224 145.704 620.968 171 652.724 171C684.481 171 710.224 145.704 710.224 114.5C710.224 83.2959 684.481 58 652.724 58C620.968 58 595.224 83.2959 595.224 114.5Z" fill="white" fill-opacity="0.95"/>
<path d="M170.317 53.5545C197.833 53.5545 221.263 63.1615 240.582 82.3623C249.681 91.3942 256.85 102.181 261.652 114.069C266.459 125.951 268.865 138.568 268.865 151.919C268.865 165.389 266.485 178.006 261.75 189.77C257.019 201.519 249.869 212.14 240.766 220.945C231.402 230.273 220.3 237.674 208.089 242.73C196.125 247.723 183.288 250.291 170.323 250.284C157.326 250.284 144.88 247.792 132.997 242.809C121.027 237.778 110.164 230.44 101.028 221.214C91.6051 211.791 84.431 201.161 79.5128 189.331C74.5888 177.476 72.0807 164.757 72.1354 151.919C72.1354 138.922 74.6273 126.423 79.598 114.416C84.6238 102.342 91.9974 91.3868 101.291 82.1853C120.026 63.1025 143.037 53.5545 170.317 53.5545ZM170.677 71.2995C148.191 71.2995 129.279 79.1425 113.941 94.835C106.372 102.435 100.319 111.406 96.1037 121.269C91.964 130.958 89.8442 141.39 89.8739 151.926C89.8739 162.464 91.9461 172.622 96.1037 182.393C100.28 192.202 106.34 201.096 113.941 208.571C121.429 216.082 130.319 222.051 140.106 226.139C149.831 230.179 160.021 232.198 170.677 232.198C181.216 232.198 191.426 230.152 201.334 226.054C211.309 221.898 220.398 215.878 228.116 208.315C243.454 193.325 251.12 174.53 251.12 151.919C251.12 141.034 249.127 130.732 245.153 121.013C241.157 111.27 235.245 102.428 227.768 95.0121C211.951 79.2081 192.921 71.2995 170.677 71.2995ZM169.445 135.584L156.264 142.437C154.854 139.519 153.136 137.466 151.083 136.293C149.037 135.125 147.135 134.535 145.378 134.535C136.591 134.535 132.197 140.332 132.197 151.926C132.197 157.192 133.312 161.408 135.535 164.569C137.764 167.73 141.043 169.317 145.371 169.317C151.116 169.317 155.155 166.497 157.503 160.884L169.615 167.028C167.149 171.716 163.443 175.636 158.9 178.36C154.336 181.114 149.299 182.491 143.798 182.491C135.01 182.491 127.928 179.803 122.538 174.406C117.154 169.028 114.459 161.526 114.459 151.926C114.459 142.562 117.187 135.125 122.629 129.623C128.072 124.115 134.951 121.361 143.266 121.361C155.451 121.361 164.172 126.102 169.445 135.591V135.584ZM226.181 135.584L213.178 142.437C211.774 139.519 210.043 137.466 207.997 136.293C205.945 135.125 203.977 134.535 202.115 134.535C193.328 134.535 188.934 140.332 188.934 151.926C188.934 157.192 190.049 161.408 192.278 164.569C194.495 167.73 197.774 169.317 202.115 169.317C207.846 169.317 211.886 166.497 214.227 160.884L226.522 167.028C223.957 171.7 220.201 175.609 215.637 178.36C211.073 181.114 206.095 182.491 200.705 182.491C191.806 182.491 184.698 179.803 179.373 174.406C174.035 169.028 171.373 161.526 171.373 151.926C171.373 142.562 174.094 135.125 179.543 129.623C184.986 124.115 191.865 121.361 200.18 121.361C212.358 121.361 221.034 126.102 226.181 135.591V135.584Z" fill="black"/>
<path d="M370.289 53.5545C387.141 53.5545 401.361 59.3385 412.929 70.9145C424.573 82.5545 430.397 96.7665 430.397 113.555C430.397 130.415 424.677 144.447 413.249 155.659C401.109 167.594 386.789 173.555 370.289 173.555C354.073 173.555 340.005 167.659 328.077 155.875C316.293 144.087 310.397 129.983 310.397 113.555C310.397 97.1265 316.293 82.9145 328.077 70.9145C339.649 59.3385 353.717 53.5545 370.289 53.5545ZM370.505 64.3785C356.865 64.3785 345.325 69.1625 335.897 78.7345C326.109 88.7345 321.217 100.343 321.217 113.559C321.217 126.843 326.073 138.343 335.785 148.055C345.501 157.771 357.073 162.623 370.501 162.623C383.857 162.623 395.501 157.735 405.429 147.943C414.861 138.875 419.573 127.41 419.573 113.551C419.573 99.9105 414.785 88.3065 405.217 78.7305C395.649 69.1625 384.077 64.3785 370.505 64.3785ZM386.577 98.6585V123.195H379.717V152.339H361.077V123.195H354.221V98.6585C354.212 98.1508 354.306 97.6465 354.499 97.1766C354.691 96.7068 354.978 96.2813 355.341 95.9265C355.697 95.5626 356.123 95.2752 356.593 95.0819C357.064 94.8886 357.569 94.7935 358.077 94.8025H382.721C383.721 94.8025 384.617 95.1745 385.401 95.9225C385.779 96.2702 386.079 96.6936 386.281 97.165C386.484 97.6365 386.585 98.1454 386.577 98.6585ZM362.037 83.2345C362.037 77.5945 364.821 74.7705 370.397 74.7705C375.973 74.7705 378.757 77.5905 378.757 83.2345C378.757 88.8065 375.969 91.5945 370.397 91.5945C364.825 91.5945 362.037 88.8065 362.037 83.2345Z" fill="black"/>
<path d="M510.289 53.5545C527.145 53.5545 541.361 59.3385 552.929 70.9105C564.573 82.4825 570.397 96.6985 570.397 113.555C570.397 130.415 564.681 144.447 553.249 155.663C541.109 167.595 526.785 173.555 510.289 173.555C494.001 173.555 479.929 167.627 468.077 155.771C456.293 143.983 450.397 129.915 450.397 113.555C450.397 97.1265 456.293 82.9145 468.077 70.9145C479.649 59.3385 493.717 53.5545 510.289 53.5545ZM463.897 97.3785C462.113 102.307 461.217 107.699 461.217 113.559C461.217 126.843 466.073 138.343 475.785 148.055C485.573 157.703 497.145 162.523 510.501 162.523C524.001 162.523 535.641 157.631 545.433 147.843C548.933 144.487 551.677 140.987 553.677 137.339L531.073 127.267C530.351 130.949 528.313 134.243 525.341 136.535C522.301 138.927 518.713 140.307 514.569 140.659V149.875H507.609V140.659C500.965 140.59 494.889 138.199 489.393 133.483L497.645 125.127C501.569 128.767 506.037 130.591 511.037 130.591C513.105 130.591 514.877 130.127 516.341 129.195C517.805 128.271 518.541 126.735 518.541 124.591C518.541 123.087 518.001 121.871 516.933 120.947L511.145 118.479L504.077 115.263L494.541 111.087L463.897 97.3785ZM510.505 64.2665C496.865 64.2665 485.325 69.0905 475.897 78.7305C473.537 81.0905 471.325 83.7705 469.257 86.7705L492.185 97.0545C493.15 93.957 495.157 91.2887 497.865 89.5025C500.645 87.6105 503.897 86.5545 507.613 86.3425V77.1265H514.577V86.3425C520.081 86.6265 525.077 88.4825 529.577 91.9105L521.757 99.9545C518.397 97.5945 514.969 96.4185 511.469 96.4185C509.613 96.4185 507.949 96.7785 506.489 97.4865C505.025 98.2025 504.289 99.4185 504.289 101.131C504.289 101.631 504.469 102.131 504.825 102.631L512.433 106.063L517.685 108.423L527.325 112.703L558.073 126.419C559.073 122.202 559.573 117.919 559.573 113.563C559.573 99.7745 554.789 88.1665 545.221 78.7345C535.721 69.0945 524.141 64.2705 510.501 64.2705L510.505 64.2665Z" fill="black"/>
<path d="M650.289 53.5545C667.073 53.5545 681.289 59.3745 692.929 71.0185C704.573 82.5945 710.397 96.7705 710.397 113.555C710.397 130.343 704.677 144.41 693.249 155.767C681.181 167.627 666.857 173.555 650.289 173.555C634.073 173.555 620.005 167.663 608.077 155.875C596.293 144.09 590.397 129.987 590.397 113.555C590.397 97.2025 596.293 83.0225 608.077 71.0225C619.717 59.3745 633.789 53.5545 650.289 53.5545ZM650.505 64.3785C636.865 64.3785 625.325 69.1985 615.897 78.8425C606.109 88.7745 601.217 100.343 601.217 113.555C601.217 126.915 606.073 138.411 615.785 148.055C625.501 157.775 637.073 162.627 650.501 162.627C663.857 162.627 675.501 157.735 685.429 147.947C694.861 138.807 699.573 127.347 699.573 113.555C699.573 99.8425 694.785 88.2705 685.217 78.8425C675.717 69.1945 664.145 64.3785 650.505 64.3785ZM673.113 99.4105V109.695H629.505V99.4105H673.113ZM673.113 118.699V128.979H629.505V118.699H673.113Z" fill="black"/>
<path fill-rule="evenodd" clip-rule="evenodd" d="M69.0142 216.404H0V321C0 332.033 8.93295 340.979 19.9605 341H782.264C793.291 340.979 802.224 332.033 802.224 321V216.404H271.986C250.649 249.914 213.17 272.144 170.5 272.144C127.83 272.144 90.3512 249.914 69.0142 216.404Z" fill="black" fill-opacity="0.4"/>
<path d="M336.539 296V256.727H352.264C355.153 256.727 357.563 257.156 359.493 258.012C361.424 258.869 362.875 260.058 363.846 261.579C364.818 263.087 365.304 264.826 365.304 266.795C365.304 268.329 364.997 269.678 364.383 270.841C363.769 271.991 362.926 272.937 361.852 273.679C360.791 274.408 359.576 274.925 358.208 275.232V275.616C359.704 275.68 361.104 276.102 362.408 276.881C363.725 277.661 364.792 278.754 365.61 280.161C366.429 281.554 366.838 283.216 366.838 285.146C366.838 287.23 366.32 289.09 365.284 290.727C364.262 292.35 362.747 293.635 360.74 294.581C358.733 295.527 356.259 296 353.318 296H336.539ZM344.843 289.212H351.612C353.926 289.212 355.613 288.771 356.674 287.888C357.735 286.994 358.266 285.805 358.266 284.322C358.266 283.235 358.004 282.276 357.48 281.445C356.956 280.614 356.208 279.962 355.236 279.489C354.277 279.016 353.133 278.78 351.804 278.78H344.843V289.212ZM344.843 273.161H350.998C352.136 273.161 353.146 272.963 354.028 272.567C354.923 272.158 355.626 271.582 356.137 270.841C356.662 270.099 356.924 269.211 356.924 268.175C356.924 266.756 356.419 265.612 355.409 264.743C354.412 263.874 352.992 263.439 351.152 263.439H344.843V273.161ZM384.519 256.727H393.82L402.775 273.641H403.159L412.114 256.727H421.414L407.09 282.116V296H398.844V282.116L384.519 256.727ZM500.456 256.727V296H493.284L476.198 271.282H475.911V296H467.607V256.727H474.894L491.846 281.426H492.191V256.727H500.456ZM556.548 270.477H548.149C547.995 269.39 547.682 268.425 547.209 267.581C546.736 266.724 546.129 265.996 545.387 265.395C544.646 264.794 543.789 264.334 542.818 264.014C541.859 263.695 540.817 263.535 539.692 263.535C537.659 263.535 535.889 264.04 534.38 265.05C532.872 266.047 531.702 267.504 530.871 269.422C530.04 271.327 529.624 273.641 529.624 276.364C529.624 279.163 530.04 281.516 530.871 283.42C531.715 285.325 532.891 286.763 534.399 287.735C535.908 288.707 537.653 289.192 539.634 289.192C540.747 289.192 541.776 289.045 542.722 288.751C543.681 288.457 544.531 288.029 545.272 287.467C546.014 286.891 546.627 286.195 547.113 285.376C547.612 284.558 547.957 283.625 548.149 282.577L556.548 282.615C556.33 284.418 555.787 286.156 554.918 287.831C554.061 289.493 552.904 290.982 551.447 292.299C550.002 293.603 548.276 294.638 546.269 295.406C544.275 296.16 542.019 296.537 539.5 296.537C535.997 296.537 532.865 295.744 530.104 294.159C527.355 292.574 525.182 290.279 523.584 287.275C521.999 284.271 521.206 280.634 521.206 276.364C521.206 272.081 522.012 268.438 523.622 265.433C525.233 262.429 527.419 260.141 530.181 258.568C532.942 256.983 536.048 256.19 539.5 256.19C541.776 256.19 543.885 256.51 545.828 257.149C547.784 257.788 549.517 258.722 551.025 259.949C552.534 261.163 553.761 262.653 554.707 264.417C555.666 266.181 556.279 268.201 556.548 270.477ZM637.009 256.727V296H629.837L612.751 271.282H612.463V296H604.16V256.727H611.447L628.399 281.426H628.744V256.727H637.009ZM672.371 296H658.449V256.727H672.486C676.436 256.727 679.837 257.513 682.688 259.086C685.538 260.646 687.731 262.889 689.265 265.817C690.812 268.744 691.585 272.247 691.585 276.325C691.585 280.416 690.812 283.932 689.265 286.872C687.731 289.812 685.526 292.069 682.649 293.641C679.786 295.214 676.359 296 672.371 296ZM666.752 288.886H672.026C674.48 288.886 676.545 288.451 678.22 287.582C679.907 286.7 681.173 285.338 682.016 283.497C682.873 281.643 683.301 279.253 683.301 276.325C683.301 273.423 682.873 271.052 682.016 269.211C681.173 267.37 679.913 266.015 678.239 265.146C676.564 264.276 674.499 263.842 672.045 263.842H666.752V288.886Z" fill="white"/>
</svg>
