<svg width="873" height="421" viewBox="0 0 873 421" fill="none" xmlns="http://www.w3.org/2000/svg">
<g filter="url(#filter0_d_28_115)">
<rect x="35" width="802.224" height="341" rx="20" fill="black" fill-opacity="0.2"/>
<rect x="35.5" y="0.5" width="801.224" height="340" rx="19.5" stroke="black" stroke-opacity="0.4"/>
<circle cx="205.5" cy="153.013" r="95.0865" fill="white" fill-opacity="0.95"/>
<ellipse cx="54" cy="51" rx="54" ry="51" transform="matrix(-1 0 0 1 460.224 63)" fill="white" fill-opacity="0.95"/>
<ellipse cx="54.5" cy="56.5" rx="54.5" ry="56.5" transform="matrix(-1 0 0 1 600.224 58)" fill="white" fill-opacity="0.95"/>
<path d="M630.224 114.5C630.224 145.704 655.968 171 687.724 171C719.481 171 745.224 145.704 745.224 114.5C745.224 83.2959 719.481 58 687.724 58C655.968 58 630.224 83.2959 630.224 114.5Z" fill="white" fill-opacity="0.95"/>
<path d="M205.317 53.5545C232.833 53.5545 256.263 63.1615 275.582 82.3623C284.681 91.3942 291.85 102.181 296.652 114.069C301.459 125.951 303.865 138.568 303.865 151.919C303.865 165.389 301.485 178.006 296.75 189.77C292.019 201.519 284.869 212.14 275.766 220.945C266.402 230.273 255.3 237.674 243.089 242.73C231.125 247.723 218.288 250.291 205.323 250.284C192.326 250.284 179.88 247.792 167.997 242.809C156.027 237.778 145.164 230.44 136.028 221.214C126.605 211.791 119.431 201.161 114.513 189.331C109.589 177.476 107.081 164.757 107.135 151.919C107.135 138.922 109.627 126.423 114.598 114.416C119.624 102.342 126.997 91.3868 136.291 82.1853C155.026 63.1025 178.037 53.5545 205.317 53.5545ZM205.677 71.2995C183.191 71.2995 164.279 79.1425 148.941 94.835C141.372 102.435 135.319 111.406 131.104 121.269C126.964 130.958 124.844 141.39 124.874 151.926C124.874 162.464 126.946 172.622 131.104 182.393C135.28 192.202 141.34 201.096 148.941 208.571C156.429 216.082 165.319 222.051 175.106 226.139C184.831 230.179 195.021 232.198 205.677 232.198C216.216 232.198 226.426 230.152 236.334 226.054C246.309 221.898 255.398 215.878 263.116 208.315C278.454 193.325 286.12 174.53 286.12 151.919C286.12 141.034 284.127 130.732 280.153 121.013C276.157 111.27 270.245 102.428 262.768 95.0121C246.951 79.2081 227.921 71.2995 205.677 71.2995ZM204.445 135.584L191.264 142.437C189.854 139.519 188.136 137.466 186.083 136.293C184.037 135.125 182.135 134.535 180.378 134.535C171.591 134.535 167.197 140.332 167.197 151.926C167.197 157.192 168.312 161.408 170.535 164.569C172.764 167.73 176.043 169.317 180.371 169.317C186.116 169.317 190.155 166.497 192.503 160.884L204.615 167.028C202.149 171.716 198.443 175.636 193.9 178.36C189.336 181.114 184.299 182.491 178.798 182.491C170.01 182.491 162.928 179.803 157.538 174.406C152.154 169.028 149.459 161.526 149.459 151.926C149.459 142.562 152.187 135.125 157.629 129.623C163.072 124.115 169.951 121.361 178.266 121.361C190.451 121.361 199.172 126.102 204.445 135.591V135.584ZM261.181 135.584L248.178 142.437C246.774 139.519 245.043 137.466 242.997 136.293C240.945 135.125 238.977 134.535 237.115 134.535C228.328 134.535 223.934 140.332 223.934 151.926C223.934 157.192 225.049 161.408 227.278 164.569C229.495 167.73 232.774 169.317 237.115 169.317C242.846 169.317 246.886 166.497 249.227 160.884L261.522 167.028C258.957 171.7 255.201 175.609 250.637 178.36C246.073 181.114 241.095 182.491 235.705 182.491C226.806 182.491 219.698 179.803 214.373 174.406C209.035 169.028 206.373 161.526 206.373 151.926C206.373 142.562 209.094 135.125 214.543 129.623C219.986 124.115 226.865 121.361 235.18 121.361C247.358 121.361 256.034 126.102 261.181 135.591V135.584Z" fill="black"/>
<path d="M405.289 53.5545C422.141 53.5545 436.361 59.3385 447.929 70.9145C459.573 82.5545 465.397 96.7665 465.397 113.555C465.397 130.415 459.677 144.447 448.249 155.659C436.109 167.594 421.789 173.555 405.289 173.555C389.073 173.555 375.005 167.659 363.077 155.875C351.293 144.087 345.397 129.983 345.397 113.555C345.397 97.1265 351.293 82.9145 363.077 70.9145C374.649 59.3385 388.717 53.5545 405.289 53.5545ZM405.505 64.3785C391.865 64.3785 380.325 69.1625 370.897 78.7345C361.109 88.7345 356.217 100.343 356.217 113.559C356.217 126.843 361.073 138.343 370.785 148.055C380.501 157.771 392.073 162.623 405.501 162.623C418.857 162.623 430.501 157.735 440.429 147.943C449.861 138.875 454.573 127.41 454.573 113.551C454.573 99.9105 449.785 88.3065 440.217 78.7305C430.649 69.1625 419.077 64.3785 405.505 64.3785ZM421.577 98.6585V123.195H414.717V152.339H396.077V123.195H389.221V98.6585C389.212 98.1508 389.306 97.6465 389.499 97.1766C389.691 96.7068 389.978 96.2813 390.341 95.9265C390.697 95.5626 391.123 95.2752 391.593 95.0819C392.064 94.8886 392.569 94.7935 393.077 94.8025H417.721C418.721 94.8025 419.617 95.1745 420.401 95.9225C420.779 96.2702 421.079 96.6936 421.281 97.165C421.484 97.6365 421.585 98.1454 421.577 98.6585ZM397.037 83.2345C397.037 77.5945 399.821 74.7705 405.397 74.7705C410.973 74.7705 413.757 77.5905 413.757 83.2345C413.757 88.8065 410.969 91.5945 405.397 91.5945C399.825 91.5945 397.037 88.8065 397.037 83.2345Z" fill="black"/>
<path d="M545.289 53.5545C562.145 53.5545 576.361 59.3385 587.929 70.9105C599.573 82.4825 605.397 96.6985 605.397 113.555C605.397 130.415 599.681 144.447 588.249 155.663C576.109 167.595 561.785 173.555 545.289 173.555C529.001 173.555 514.929 167.627 503.077 155.771C491.293 143.983 485.397 129.915 485.397 113.555C485.397 97.1265 491.293 82.9145 503.077 70.9145C514.649 59.3385 528.717 53.5545 545.289 53.5545ZM498.897 97.3785C497.113 102.307 496.217 107.699 496.217 113.559C496.217 126.843 501.073 138.343 510.785 148.055C520.573 157.703 532.145 162.523 545.501 162.523C559.001 162.523 570.641 157.631 580.433 147.843C583.933 144.487 586.677 140.987 588.677 137.339L566.073 127.267C565.351 130.949 563.313 134.243 560.341 136.535C557.301 138.927 553.713 140.307 549.569 140.659V149.875H542.609V140.659C535.965 140.59 529.889 138.199 524.393 133.483L532.645 125.127C536.569 128.767 541.037 130.591 546.037 130.591C548.105 130.591 549.877 130.127 551.341 129.195C552.805 128.271 553.541 126.735 553.541 124.591C553.541 123.087 553.001 121.871 551.933 120.947L546.145 118.479L539.077 115.263L529.541 111.087L498.897 97.3785ZM545.505 64.2665C531.865 64.2665 520.325 69.0905 510.897 78.7305C508.537 81.0905 506.325 83.7705 504.257 86.7705L527.185 97.0545C528.15 93.957 530.157 91.2887 532.865 89.5025C535.645 87.6105 538.897 86.5545 542.613 86.3425V77.1265H549.577V86.3425C555.081 86.6265 560.077 88.4825 564.577 91.9105L556.757 99.9545C553.397 97.5945 549.969 96.4185 546.469 96.4185C544.613 96.4185 542.949 96.7785 541.489 97.4865C540.025 98.2025 539.289 99.4185 539.289 101.131C539.289 101.631 539.469 102.131 539.825 102.631L547.433 106.063L552.685 108.423L562.325 112.703L593.073 126.419C594.073 122.202 594.573 117.919 594.573 113.563C594.573 99.7745 589.789 88.1665 580.221 78.7345C570.721 69.0945 559.141 64.2705 545.501 64.2705L545.505 64.2665Z" fill="black"/>
<path d="M685.289 53.5545C702.073 53.5545 716.289 59.3745 727.929 71.0185C739.573 82.5945 745.397 96.7705 745.397 113.555C745.397 130.343 739.677 144.41 728.249 155.767C716.181 167.627 701.857 173.555 685.289 173.555C669.073 173.555 655.005 167.663 643.077 155.875C631.293 144.09 625.397 129.987 625.397 113.555C625.397 97.2025 631.293 83.0225 643.077 71.0225C654.717 59.3745 668.789 53.5545 685.289 53.5545ZM685.505 64.3785C671.865 64.3785 660.325 69.1985 650.897 78.8425C641.109 88.7745 636.217 100.343 636.217 113.555C636.217 126.915 641.073 138.411 650.785 148.055C660.501 157.775 672.073 162.627 685.501 162.627C698.857 162.627 710.501 157.735 720.429 147.947C729.861 138.807 734.573 127.347 734.573 113.555C734.573 99.8425 729.785 88.2705 720.217 78.8425C710.717 69.1945 699.145 64.3785 685.505 64.3785ZM708.113 99.4105V109.695H664.505V99.4105H708.113ZM708.113 118.699V128.979H664.505V118.699H708.113Z" fill="black"/>
<path fill-rule="evenodd" clip-rule="evenodd" d="M104.014 216.404H35V321C35 332.033 43.933 340.979 54.9605 341H817.264C828.291 340.979 837.224 332.033 837.224 321V216.404H306.986C285.649 249.914 248.17 272.144 205.5 272.144C162.83 272.144 125.351 249.914 104.014 216.404Z" fill="black" fill-opacity="0.4"/>
<path d="M371.539 296V256.727H387.264C390.153 256.727 392.563 257.156 394.493 258.012C396.424 258.869 397.875 260.058 398.846 261.579C399.818 263.087 400.304 264.826 400.304 266.795C400.304 268.329 399.997 269.678 399.383 270.841C398.769 271.991 397.926 272.937 396.852 273.679C395.791 274.408 394.576 274.925 393.208 275.232V275.616C394.704 275.68 396.104 276.102 397.408 276.881C398.725 277.661 399.792 278.754 400.61 280.161C401.429 281.554 401.838 283.216 401.838 285.146C401.838 287.23 401.32 289.09 400.284 290.727C399.262 292.35 397.747 293.635 395.74 294.581C393.733 295.527 391.259 296 388.318 296H371.539ZM379.843 289.212H386.612C388.926 289.212 390.613 288.771 391.674 287.888C392.735 286.994 393.266 285.805 393.266 284.322C393.266 283.235 393.004 282.276 392.48 281.445C391.956 280.614 391.208 279.962 390.236 279.489C389.277 279.016 388.133 278.78 386.804 278.78H379.843V289.212ZM379.843 273.161H385.998C387.136 273.161 388.146 272.963 389.028 272.567C389.923 272.158 390.626 271.582 391.137 270.841C391.662 270.099 391.924 269.211 391.924 268.175C391.924 266.756 391.419 265.612 390.409 264.743C389.412 263.874 387.992 263.439 386.152 263.439H379.843V273.161ZM419.519 256.727H428.82L437.775 273.641H438.159L447.114 256.727H456.414L442.09 282.116V296H433.844V282.116L419.519 256.727ZM535.456 256.727V296H528.284L511.198 271.282H510.911V296H502.607V256.727H509.894L526.846 281.426H527.191V256.727H535.456ZM591.548 270.477H583.149C582.995 269.39 582.682 268.425 582.209 267.581C581.736 266.724 581.129 265.996 580.387 265.395C579.646 264.794 578.789 264.334 577.818 264.014C576.859 263.695 575.817 263.535 574.692 263.535C572.659 263.535 570.889 264.04 569.38 265.05C567.872 266.047 566.702 267.504 565.871 269.422C565.04 271.327 564.624 273.641 564.624 276.364C564.624 279.163 565.04 281.516 565.871 283.42C566.715 285.325 567.891 286.763 569.399 287.735C570.908 288.707 572.653 289.192 574.634 289.192C575.747 289.192 576.776 289.045 577.722 288.751C578.681 288.457 579.531 288.029 580.272 287.467C581.014 286.891 581.627 286.195 582.113 285.376C582.612 284.558 582.957 283.625 583.149 282.577L591.548 282.615C591.33 284.418 590.787 286.156 589.918 287.831C589.061 289.493 587.904 290.982 586.447 292.299C585.002 293.603 583.276 294.638 581.269 295.406C579.275 296.16 577.019 296.537 574.5 296.537C570.997 296.537 567.865 295.744 565.104 294.159C562.355 292.574 560.182 290.279 558.584 287.275C556.999 284.271 556.206 280.634 556.206 276.364C556.206 272.081 557.012 268.438 558.622 265.433C560.233 262.429 562.419 260.141 565.181 258.568C567.942 256.983 571.048 256.19 574.5 256.19C576.776 256.19 578.885 256.51 580.828 257.149C582.784 257.788 584.517 258.722 586.025 259.949C587.534 261.163 588.761 262.653 589.707 264.417C590.666 266.181 591.279 268.201 591.548 270.477ZM672.009 256.727V296H664.837L647.751 271.282H647.463V296H639.16V256.727H646.447L663.399 281.426H663.744V256.727H672.009ZM707.371 296H693.449V256.727H707.486C711.436 256.727 714.837 257.513 717.688 259.086C720.538 260.646 722.731 262.889 724.265 265.817C725.812 268.744 726.585 272.247 726.585 276.325C726.585 280.416 725.812 283.932 724.265 286.872C722.731 289.812 720.526 292.069 717.649 293.641C714.786 295.214 711.359 296 707.371 296ZM701.752 288.886H707.026C709.48 288.886 711.545 288.451 713.22 287.582C714.907 286.7 716.173 285.338 717.016 283.497C717.873 281.643 718.301 279.253 718.301 276.325C718.301 273.423 717.873 271.052 717.016 269.211C716.173 267.37 714.913 266.015 713.239 265.146C711.564 264.276 709.499 263.842 707.045 263.842H701.752V288.886Z" fill="white"/>
</g>
<defs>
<filter id="filter0_d_28_115" x="-5" y="0" width="882.224" height="421" filterUnits="userSpaceOnUse" color-interpolation-filters="sRGB">
<feFlood flood-opacity="0" result="BackgroundImageFix"/>
<feColorMatrix in="SourceAlpha" type="matrix" values="0 0 0 0 0 0 0 0 0 0 0 0 0 0 0 0 0 0 127 0" result="hardAlpha"/>
<feOffset dy="40"/>
<feGaussianBlur stdDeviation="20"/>
<feComposite in2="hardAlpha" operator="out"/>
<feColorMatrix type="matrix" values="0 0 0 0 0 0 0 0 0 0 0 0 0 0 0 0 0 0 0.15 0"/>
<feBlend mode="normal" in2="BackgroundImageFix" result="effect1_dropShadow_28_115"/>
<feBlend mode="normal" in="SourceGraphic" in2="effect1_dropShadow_28_115" result="shape"/>
</filter>
</defs>
</svg>
