<svg width="360" height="123" viewBox="0 0 360 123" fill="none" xmlns="http://www.w3.org/2000/svg">
<path d="M237.152 37V44.6469H227.162V37H237.152ZM227.161 82.3703V48.4698H237.151V82.3703H227.161ZM217.444 49.1071H223.4L223.401 55.2249H217.445V71.8547C217.445 74.5313 218.789 75.2323 220.583 75.2323C221.671 75.2323 223.079 75.105 223.593 75.0414V82.8792C222.312 83.0076 219.366 83.2621 217.189 83.2621C208.671 83.2621 207.454 77.9737 207.454 73.067V55.2237H202.588V49.1071H207.454V39.2937H217.444V49.1071ZM96.3147 47.578C102.782 47.578 108.354 49.9365 111.62 55.8623L103.934 59.8772C102.142 56.0531 99.0672 55.2249 97.5305 55.2249C91.8312 55.2249 89.7819 59.6215 89.7819 65.42C89.7819 71.2197 92.2148 75.6163 97.5305 75.6163C100.604 75.6163 103.037 74.4701 104.639 70.646L111.811 74.278C108.737 79.6948 103.166 83.2633 96.6343 83.2633C86.4528 83.2633 79.4086 76.8262 79.4086 65.42C79.4086 54.2047 86.9015 47.578 96.3147 47.578ZM96.3147 86.5784C102.782 86.5784 108.354 88.9369 111.62 94.8626L103.934 98.8787C102.142 95.0547 99.0672 94.2265 97.5305 94.2265C91.8312 94.2265 89.7819 98.6231 89.7819 104.423C89.7819 110.221 92.2148 114.618 97.5305 114.618C100.604 114.618 103.037 113.47 104.639 109.646L111.811 113.278C108.737 118.695 103.166 122.264 96.6343 122.264C86.4528 122.264 79.4086 115.828 79.4086 104.422C79.4086 93.2051 86.9015 86.5784 96.3147 86.5784ZM129.928 86.5784C119.298 86.5784 111.806 93.0142 111.806 104.422C111.806 115.828 119.298 122.264 129.928 122.264C140.558 122.264 148.051 115.828 148.051 104.422C148.051 93.0154 140.558 86.5784 129.928 86.5784ZM129.928 94.2253C135.627 94.2253 138.061 98.6219 138.061 104.039C138.061 110.22 135.627 114.617 129.928 114.617C124.229 114.617 121.796 110.22 121.796 104.422C121.796 98.6231 124.229 94.2253 129.928 94.2253ZM150.098 121.371H160.088V100.279C160.088 97.2212 161.369 94.6082 165.402 94.6082C169.245 94.6082 170.269 96.8383 170.269 100.152V121.372H180.259V100.534C180.259 97.0927 181.987 94.6082 185.318 94.6082C189.095 94.6082 190.44 96.7747 190.44 101.554V121.371H200.43V95.5C200.43 87.7258 193.258 86.5784 189.928 86.5784C185.957 86.5784 182.243 87.7894 178.978 91.1022C176.736 88.1075 173.855 86.5784 169.948 86.5784C166.875 86.5784 162.648 87.4702 160.086 90.466V87.4714H150.097L150.098 121.371ZM213.616 121.371H203.627L203.625 87.4714H213.615V90.466C216.177 87.4702 220.404 86.5784 223.477 86.5784C227.384 86.5784 230.265 88.1075 232.507 91.1022C235.773 87.7894 239.486 86.5784 243.456 86.5784C246.785 86.5784 253.959 87.7258 253.959 95.5V121.371H243.969V101.554C243.969 96.7747 242.623 94.6082 238.845 94.6082C235.516 94.6082 233.787 97.0927 233.787 100.534V121.372H223.798V100.152C223.798 96.8383 222.774 94.6082 218.931 94.6082C214.897 94.6082 213.616 97.2212 213.616 100.279V121.371ZM256.001 104.422C256.001 93.0142 263.494 86.5784 274.124 86.5784C284.754 86.5784 292.247 93.0154 292.247 104.422C292.247 115.828 284.754 122.264 274.124 122.264C263.493 122.264 256.001 115.828 256.001 104.422ZM282.256 104.039C282.256 98.6219 279.822 94.2253 274.124 94.2253C268.425 94.2253 265.991 98.6231 265.991 104.422C265.991 110.22 268.425 114.617 274.124 114.617C279.822 114.617 282.256 110.22 282.256 104.039ZM304.924 121.371H294.934L294.933 87.4714H304.923V90.466C307.485 87.4702 311.711 86.5784 314.785 86.5784C322.853 86.5784 325.095 91.2306 325.095 96.3282V121.372H315.106V100.152C315.106 96.8383 314.082 94.6082 310.24 94.6082C306.205 94.6082 304.924 97.2212 304.924 100.279V121.371ZM358.453 91.4863C353.842 88.428 348.656 86.5795 343.404 86.5795C336.487 86.5795 328.995 89.8935 328.995 98.4322C328.995 105.675 336.292 107.041 342.107 108.13C345.962 108.851 349.166 109.451 349.166 111.56C349.166 114.619 345.39 115.001 343.723 115.001C339.177 115.001 336.039 113.154 332.965 110.221L326.753 115.573C331.749 120.162 335.974 122.265 343.403 122.265C350.83 122.265 358.771 119.078 358.771 110.158C358.771 102.592 351.592 101.242 345.799 100.152C341.883 99.4146 338.6 98.797 338.6 96.4578C338.6 94.7378 340.393 93.846 342.889 93.846C346.028 93.846 350.318 95.1206 352.303 97.478L358.453 91.4863ZM114.057 82.3703H124.046V62.7434C124.046 58.9842 126.415 57.964 132.371 57.263L133.459 57.1358L133.395 48.3426C129.873 48.5982 126.223 49.8717 124.046 51.911V48.4698H114.057V82.3703ZM167.386 67.4593C167.322 57.0085 163.096 47.578 150.672 47.578C140.298 47.578 133.958 54.4603 133.958 66.4403C133.958 75.998 140.106 83.2633 150.672 83.2633C158.293 83.2633 163.735 80.2686 167.193 73.8963L159.7 70.0087C156.819 74.0872 155.089 75.998 151.375 75.998C148.174 75.998 144.011 73.9588 143.948 67.4593H167.386ZM143.821 61.3427C144.268 56.8813 147.727 54.8432 150.608 54.8432C153.49 54.8432 157.076 56.3724 157.395 61.3427H143.821ZM184.73 47.578C194.016 47.578 199.843 49.7445 199.907 57.3914V75.2982C199.907 77.6568 199.971 80.2686 200.803 82.3714H191.582C191.198 81.224 191.005 80.0141 190.941 78.8666H190.813C189.149 81.5433 184.154 83.2633 180.568 83.2633C174.036 83.2633 169.169 79.6948 169.169 73.1954C169.169 65.0383 175.766 62.1709 186.652 60.6417L190.302 60.1316V57.3278C190.302 54.7784 188.252 53.6958 185.563 53.6958C182.36 53.6958 180.825 54.842 180.312 58.2196H170.706C171.027 48.4698 180.119 47.578 184.73 47.578ZM183.449 75.998C187.356 75.998 190.302 73.385 190.302 68.2239V65.8665L183.577 67.7786C181.079 68.4795 178.774 69.4349 178.774 72.1752C178.774 74.8506 181.015 75.998 183.449 75.998ZM260.649 82.3703H250.595L239.069 48.4698H249.762L255.655 72.4296H255.782L261.674 48.4698H272.304L260.649 82.3703ZM287.851 47.578C300.274 47.578 304.5 57.0085 304.564 67.4593H281.128C281.191 73.9588 285.354 75.998 288.556 75.998C292.268 75.998 293.998 74.0872 296.88 70.0087L304.372 73.8963C300.914 80.2686 295.472 83.2633 287.851 83.2633C277.284 83.2633 271.138 75.998 271.138 66.4403C271.138 54.4603 277.476 47.578 287.851 47.578ZM287.786 54.8432C284.905 54.8432 281.448 56.8813 280.999 61.3427H294.575C294.255 56.3724 290.668 54.8432 287.786 54.8432ZM37.4135 47.0078C27.1349 47.0078 18.0899 50.793 11.1002 57.8497C3.90567 65.1126 0 74.5219 0 84.3412C0 94.2618 3.80267 103.467 10.9984 110.628C18.1929 117.787 27.5469 121.673 37.4135 121.673C47.2801 121.673 56.84 117.787 64.2406 110.525C71.2303 103.672 74.93 94.5693 74.93 84.3412C74.93 74.2156 71.2303 65.0101 64.1376 57.9522C56.943 50.793 47.6921 47.0078 37.4135 47.0078ZM37.5165 53.7594C45.9446 53.7594 53.4482 56.9296 59.3073 62.7599C65.0622 68.4878 68.1462 76.0569 68.1462 84.3412C68.1462 92.728 65.1652 100.092 59.4091 105.719C53.344 111.65 45.5326 114.822 37.5153 114.822C29.3949 114.822 21.7884 111.651 15.9305 105.821C10.0714 99.9897 6.78254 92.3192 6.78254 84.3412C6.78254 76.2607 10.0714 68.5902 15.9305 62.6574C21.6866 56.8283 29.0883 53.7594 37.5165 53.7594ZM37.0323 78.1374C34.9131 74.2922 31.2975 72.7618 27.1006 72.7618C20.9917 72.7618 16.1294 77.0618 16.1294 84.3412C16.1294 91.7431 20.7004 95.9206 27.3089 95.9206C31.5485 95.9206 35.1629 93.6044 37.1578 90.0902L32.5027 87.7329C31.4632 90.2139 29.8851 90.9585 27.8902 90.9585C24.4403 90.9585 22.8622 88.1052 22.8622 84.3424C22.8622 80.5796 24.1917 77.7251 27.8902 77.7251C28.8871 77.7251 30.8819 78.2635 32.0457 80.7433L37.0323 78.1374ZM48.7445 72.7618C52.9415 72.7618 56.5559 74.2922 58.6762 78.1374L53.6897 80.7433C52.5247 78.2635 50.5299 77.7251 49.533 77.7251C45.8345 77.7251 44.5038 80.5796 44.5038 84.3424C44.5038 88.1052 46.0843 90.9585 49.533 90.9585C51.5279 90.9585 53.1072 90.2139 54.1455 87.7329L58.8006 90.0902C56.8057 93.6044 53.1913 95.9206 48.9517 95.9206C42.3444 95.9206 37.7722 91.7431 37.7722 84.3412C37.7722 77.0618 42.6356 72.7618 48.7445 72.7618Z" fill="white"/>
<path d="M1.84943 26V10.7273H3.69886V24.3594H10.7983V26H1.84943ZM15.5233 26V14.5455H17.2832V26H15.5233ZM16.4182 12.6364C16.0751 12.6364 15.7793 12.5195 15.5308 12.2859C15.2871 12.0522 15.1653 11.7713 15.1653 11.4432C15.1653 11.1151 15.2871 10.8342 15.5308 10.6005C15.7793 10.3668 16.0751 10.25 16.4182 10.25C16.7612 10.25 17.0545 10.3668 17.2982 10.6005C17.5467 10.8342 17.671 11.1151 17.671 11.4432C17.671 11.7713 17.5467 12.0522 17.2982 12.2859C17.0545 12.5195 16.7612 12.6364 16.4182 12.6364ZM27.2601 26.2386C26.1862 26.2386 25.2615 25.9851 24.486 25.478C23.7104 24.9709 23.1138 24.2724 22.6962 23.3825C22.2786 22.4925 22.0698 21.4759 22.0698 20.3324C22.0698 19.169 22.2835 18.1424 22.7111 17.2525C23.1436 16.3576 23.7452 15.6591 24.5158 15.157C25.2914 14.6499 26.1962 14.3963 27.2303 14.3963C28.0357 14.3963 28.7615 14.5455 29.4078 14.8438C30.0541 15.142 30.5836 15.5597 30.9963 16.0966C31.4089 16.6335 31.6649 17.2599 31.7644 17.9759H30.0044C29.8702 17.4538 29.5719 16.9915 29.1095 16.5888C28.6521 16.1811 28.0357 15.9773 27.2601 15.9773C26.574 15.9773 25.9725 16.1562 25.4554 16.5142C24.9433 16.8672 24.5431 17.3668 24.2548 18.0131C23.9714 18.6545 23.8297 19.4077 23.8297 20.2727C23.8297 21.1577 23.9689 21.9283 24.2473 22.5845C24.5307 23.2408 24.9284 23.7504 25.4405 24.1133C25.9575 24.4762 26.5641 24.6577 27.2601 24.6577C27.7175 24.6577 28.1326 24.5781 28.5055 24.419C28.8784 24.2599 29.1941 24.0312 29.4526 23.733C29.7111 23.4347 29.895 23.0767 30.0044 22.6591H31.7644C31.6649 23.3352 31.4188 23.9442 31.0261 24.4862C30.6383 25.0231 30.1237 25.4506 29.4824 25.7688C28.846 26.082 28.1053 26.2386 27.2601 26.2386ZM41.2397 26.2386C40.136 26.2386 39.184 25.995 38.3835 25.5078C37.5881 25.0156 36.9741 24.3295 36.5416 23.4496C36.114 22.5646 35.9002 21.5355 35.9002 20.3622C35.9002 19.1889 36.114 18.1548 36.5416 17.2599C36.9741 16.3601 37.5757 15.6591 38.3463 15.157C39.1218 14.6499 40.0267 14.3963 41.0607 14.3963C41.6573 14.3963 42.2465 14.4957 42.8281 14.6946C43.4098 14.8935 43.9393 15.2166 44.4166 15.6641C44.8938 16.1065 45.2742 16.6932 45.5575 17.424C45.8409 18.1548 45.9826 19.0547 45.9826 20.1236V20.8693H37.1531V19.348H44.1928C44.1928 18.7017 44.0636 18.125 43.8051 17.6179C43.5515 17.1108 43.1886 16.7106 42.7163 16.4173C42.249 16.1239 41.6971 15.9773 41.0607 15.9773C40.3597 15.9773 39.7532 16.1513 39.2411 16.4993C38.734 16.8423 38.3438 17.2898 38.0703 17.8416C37.7969 18.3935 37.6602 18.9851 37.6602 19.6165V20.6307C37.6602 21.4957 37.8093 22.229 38.1076 22.8306C38.4109 23.4272 38.831 23.8821 39.3679 24.1953C39.9048 24.5036 40.5288 24.6577 41.2397 24.6577C41.7021 24.6577 42.1197 24.593 42.4926 24.4638C42.8704 24.3295 43.196 24.1307 43.4695 23.8672C43.7429 23.5987 43.9542 23.2656 44.1034 22.8679L45.8036 23.3452C45.6247 23.9219 45.3239 24.429 44.9013 24.8665C44.4787 25.299 43.9567 25.6371 43.3352 25.8807C42.7138 26.1193 42.0153 26.2386 41.2397 26.2386ZM52.5198 19.1094V26H50.7598V14.5455H52.4601V16.3352H52.6093C52.8777 15.7536 53.2854 15.2862 53.8323 14.9332C54.3791 14.5753 55.0851 14.3963 55.9502 14.3963C56.7257 14.3963 57.4044 14.5554 57.986 14.8736C58.5677 15.1868 59.0201 15.6641 59.3433 16.3054C59.6664 16.9418 59.828 17.7472 59.828 18.7216V26H58.0681V18.8409C58.0681 17.9411 57.8344 17.2401 57.3671 16.7379C56.8997 16.2308 56.2584 15.9773 55.4431 15.9773C54.8813 15.9773 54.3791 16.0991 53.9367 16.3427C53.4992 16.5863 53.1536 16.9418 52.9001 17.4091C52.6465 17.8764 52.5198 18.4432 52.5198 19.1094ZM73.2576 17.1108L71.6767 17.5582C71.5772 17.2947 71.4306 17.0387 71.2367 16.7901C71.0478 16.5366 70.7892 16.3278 70.4611 16.1637C70.133 15.9996 69.7129 15.9176 69.2008 15.9176C68.4998 15.9176 67.9157 16.0792 67.4483 16.4023C66.986 16.7205 66.7548 17.1257 66.7548 17.6179C66.7548 18.0554 66.9139 18.4009 67.2321 18.6545C67.5502 18.908 68.0474 19.1193 68.7235 19.2884L70.4238 19.706C71.448 19.9545 72.2111 20.3349 72.7132 20.8469C73.2154 21.354 73.4664 22.0078 73.4664 22.8082C73.4664 23.4645 73.2775 24.0511 72.8997 24.5682C72.5268 25.0852 72.0048 25.4929 71.3336 25.7912C70.6625 26.0895 69.8819 26.2386 68.992 26.2386C67.8237 26.2386 66.8567 25.9851 66.0911 25.478C65.3255 24.9709 64.8407 24.2301 64.6369 23.2557L66.3074 22.8381C66.4664 23.4545 66.7672 23.9169 67.2097 24.2251C67.6571 24.5334 68.2413 24.6875 68.9622 24.6875C69.7825 24.6875 70.4338 24.5135 70.916 24.1655C71.4032 23.8125 71.6468 23.3899 71.6468 22.8977C71.6468 22.5 71.5076 22.1669 71.2292 21.8984C70.9508 21.625 70.5233 21.4212 69.9466 21.2869L68.0375 20.8395C66.9885 20.5909 66.2179 20.2056 65.7257 19.6836C65.2385 19.1566 64.9949 18.4979 64.9949 17.7074C64.9949 17.0611 65.1763 16.4893 65.5392 15.9922C65.9071 15.495 66.4068 15.1048 67.0382 14.8214C67.6745 14.538 68.3954 14.3963 69.2008 14.3963C70.3343 14.3963 71.2243 14.6449 71.8706 15.142C72.5218 15.6392 72.9842 16.2955 73.2576 17.1108ZM83.0182 26.2386C81.9145 26.2386 80.9625 25.995 80.1621 25.5078C79.3666 25.0156 78.7526 24.3295 78.3201 23.4496C77.8925 22.5646 77.6787 21.5355 77.6787 20.3622C77.6787 19.1889 77.8925 18.1548 78.3201 17.2599C78.7526 16.3601 79.3542 15.6591 80.1248 15.157C80.9003 14.6499 81.8052 14.3963 82.8393 14.3963C83.4358 14.3963 84.025 14.4957 84.6067 14.6946C85.1883 14.8935 85.7178 15.2166 86.1951 15.6641C86.6724 16.1065 87.0527 16.6932 87.3361 17.424C87.6194 18.1548 87.7611 19.0547 87.7611 20.1236V20.8693H78.9316V19.348H85.9714C85.9714 18.7017 85.8421 18.125 85.5836 17.6179C85.33 17.1108 84.9671 16.7106 84.4948 16.4173C84.0275 16.1239 83.4756 15.9773 82.8393 15.9773C82.1383 15.9773 81.5317 16.1513 81.0197 16.4993C80.5126 16.8423 80.1223 17.2898 79.8488 17.8416C79.5754 18.3935 79.4387 18.9851 79.4387 19.6165V20.6307C79.4387 21.4957 79.5878 22.229 79.8861 22.8306C80.1894 23.4272 80.6095 23.8821 81.1464 24.1953C81.6834 24.5036 82.3073 24.6577 83.0182 24.6577C83.4806 24.6577 83.8982 24.593 84.2711 24.4638C84.6489 24.3295 84.9746 24.1307 85.248 23.8672C85.5214 23.5987 85.7327 23.2656 85.8819 22.8679L87.5822 23.3452C87.4032 23.9219 87.1024 24.429 86.6798 24.8665C86.2572 25.299 85.7352 25.6371 85.1138 25.8807C84.4923 26.1193 83.7938 26.2386 83.0182 26.2386ZM96.8636 26.2386C95.9091 26.2386 95.0664 25.9975 94.3356 25.5153C93.6047 25.0281 93.033 24.342 92.6204 23.457C92.2077 22.5671 92.0014 21.5156 92.0014 20.3026C92.0014 19.0994 92.2077 18.0554 92.6204 17.1705C93.033 16.2855 93.6072 15.6019 94.343 15.1197C95.0788 14.6374 95.929 14.3963 96.8934 14.3963C97.6392 14.3963 98.2283 14.5206 98.6608 14.7692C99.0983 15.0128 99.4314 15.2912 99.6601 15.6044C99.8938 15.9126 100.075 16.1662 100.205 16.3651H100.354V10.7273H102.114V26H100.413V24.2401H100.205C100.075 24.4489 99.8913 24.7124 99.6527 25.0305C99.414 25.3437 99.0735 25.6246 98.631 25.8732C98.1885 26.1168 97.5994 26.2386 96.8636 26.2386ZM97.1023 24.6577C97.8082 24.6577 98.4048 24.4737 98.892 24.1058C99.3792 23.733 99.7496 23.2184 100.003 22.5621C100.257 21.9009 100.384 21.1378 100.384 20.2727C100.384 19.4176 100.259 18.6694 100.011 18.0281C99.7621 17.3817 99.3942 16.8796 98.9069 16.5217C98.4197 16.1587 97.8182 15.9773 97.1023 15.9773C96.3565 15.9773 95.7351 16.1687 95.2379 16.5515C94.7457 16.9293 94.3753 17.4439 94.1268 18.0952C93.8831 18.7415 93.7613 19.4673 93.7613 20.2727C93.7613 21.0881 93.8856 21.8288 94.1342 22.495C94.3878 23.1562 94.7606 23.6832 95.2528 24.076C95.75 24.4638 96.3665 24.6577 97.1023 24.6577ZM122.906 21.3168V14.5455H124.666V26H122.906V24.0611H122.787C122.519 24.6428 122.101 25.1374 121.534 25.5451C120.967 25.9478 120.251 26.1491 119.386 26.1491C118.671 26.1491 118.034 25.9925 117.477 25.6793C116.921 25.3612 116.483 24.8839 116.165 24.2475C115.847 23.6062 115.688 22.7983 115.688 21.8239V14.5455H117.447V21.7045C117.447 22.5398 117.681 23.206 118.148 23.7031C118.621 24.2003 119.222 24.4489 119.953 24.4489C120.391 24.4489 120.836 24.337 121.288 24.1133C121.745 23.8896 122.128 23.5465 122.436 23.0842C122.75 22.6218 122.906 22.0327 122.906 21.3168ZM131.75 19.1094V26H129.99V14.5455H131.69V16.3352H131.839C132.108 15.7536 132.515 15.2862 133.062 14.9332C133.609 14.5753 134.315 14.3963 135.18 14.3963C135.956 14.3963 136.634 14.5554 137.216 14.8736C137.798 15.1868 138.25 15.6641 138.573 16.3054C138.896 16.9418 139.058 17.7472 139.058 18.7216V26H137.298V18.8409C137.298 17.9411 137.064 17.2401 136.597 16.7379C136.13 16.2308 135.488 15.9773 134.673 15.9773C134.111 15.9773 133.609 16.0991 133.167 16.3427C132.729 16.5863 132.384 16.9418 132.13 17.4091C131.876 17.8764 131.75 18.4432 131.75 19.1094ZM148.699 26.2386C147.745 26.2386 146.902 25.9975 146.171 25.5153C145.44 25.0281 144.869 24.342 144.456 23.457C144.043 22.5671 143.837 21.5156 143.837 20.3026C143.837 19.0994 144.043 18.0554 144.456 17.1705C144.869 16.2855 145.443 15.6019 146.179 15.1197C146.914 14.6374 147.765 14.3963 148.729 14.3963C149.475 14.3963 150.064 14.5206 150.496 14.7692C150.934 15.0128 151.267 15.2912 151.496 15.6044C151.729 15.9126 151.911 16.1662 152.04 16.3651H152.189V10.7273H153.949V26H152.249V24.2401H152.04C151.911 24.4489 151.727 24.7124 151.488 25.0305C151.25 25.3437 150.909 25.6246 150.467 25.8732C150.024 26.1168 149.435 26.2386 148.699 26.2386ZM148.938 24.6577C149.644 24.6577 150.24 24.4737 150.728 24.1058C151.215 23.733 151.585 23.2184 151.839 22.5621C152.092 21.9009 152.219 21.1378 152.219 20.2727C152.219 19.4176 152.095 18.6694 151.846 18.0281C151.598 17.3817 151.23 16.8796 150.742 16.5217C150.255 16.1587 149.654 15.9773 148.938 15.9773C148.192 15.9773 147.571 16.1687 147.073 16.5515C146.581 16.9293 146.211 17.4439 145.962 18.0952C145.719 18.7415 145.597 19.4673 145.597 20.2727C145.597 21.0881 145.721 21.8288 145.97 22.495C146.223 23.1562 146.596 23.6832 147.088 24.076C147.586 24.4638 148.202 24.6577 148.938 24.6577ZM164.319 26.2386C163.216 26.2386 162.264 25.995 161.463 25.5078C160.668 25.0156 160.054 24.3295 159.621 23.4496C159.194 22.5646 158.98 21.5355 158.98 20.3622C158.98 19.1889 159.194 18.1548 159.621 17.2599C160.054 16.3601 160.655 15.6591 161.426 15.157C162.202 14.6499 163.106 14.3963 164.14 14.3963C164.737 14.3963 165.326 14.4957 165.908 14.6946C166.49 14.8935 167.019 15.2166 167.496 15.6641C167.974 16.1065 168.354 16.6932 168.637 17.424C168.921 18.1548 169.062 19.0547 169.062 20.1236V20.8693H160.233V19.348H167.273C167.273 18.7017 167.143 18.125 166.885 17.6179C166.631 17.1108 166.268 16.7106 165.796 16.4173C165.329 16.1239 164.777 15.9773 164.14 15.9773C163.439 15.9773 162.833 16.1513 162.321 16.4993C161.814 16.8423 161.423 17.2898 161.15 17.8416C160.877 18.3935 160.74 18.9851 160.74 19.6165V20.6307C160.74 21.4957 160.889 22.229 161.187 22.8306C161.491 23.4272 161.911 23.8821 162.448 24.1953C162.985 24.5036 163.608 24.6577 164.319 24.6577C164.782 24.6577 165.199 24.593 165.572 24.4638C165.95 24.3295 166.276 24.1307 166.549 23.8672C166.823 23.5987 167.034 23.2656 167.183 22.8679L168.883 23.3452C168.704 23.9219 168.404 24.429 167.981 24.8665C167.558 25.299 167.036 25.6371 166.415 25.8807C165.793 26.1193 165.095 26.2386 164.319 26.2386ZM173.84 26V14.5455H175.54V16.2756H175.659C175.868 15.7088 176.246 15.2489 176.793 14.896C177.34 14.543 177.956 14.3665 178.642 14.3665C178.771 14.3665 178.933 14.369 179.127 14.3739C179.321 14.3789 179.467 14.3864 179.567 14.3963V16.1861C179.507 16.1712 179.37 16.1488 179.157 16.119C178.948 16.0842 178.727 16.0668 178.493 16.0668C177.936 16.0668 177.439 16.1836 177.001 16.4173C176.569 16.646 176.226 16.9641 175.972 17.3718C175.724 17.7745 175.599 18.2344 175.599 18.7514V26H173.84Z" fill="white"/>
</svg>
